<svg version="1.1" xmlns="http://www.w3.org/2000/svg" xmlns:xlink="http://www.w3.org/1999/xlink" width="18.03184" height="358.0159" viewBox="0,0,18.03184,358.0159"><g transform="translate(-219.46088,5.49323)"><g data-paper-data="{&quot;isPaintingLayer&quot;:true}" fill="#9966ff" fill-rule="nonzero" stroke="none" stroke-width="0.5" stroke-linecap="butt" stroke-linejoin="miter" stroke-miterlimit="10" stroke-dasharray="" stroke-dashoffset="0" style="mix-blend-mode: normal"><path d="M229.76777,1.76777c-1.76777,1.76777 -3.53553,0 -3.53553,0l-0.08709,-0.08709c-0.47869,1.45192 -1.55704,4.00036 -1.67742,4.71978c-0.86738,5.18355 0.03228,11.35105 0.03228,16.59954c0,15.33945 -0.00049,30.67891 0.00068,46.01836c0.22714,12.30063 1.23433,24.61617 1.99454,36.8685c0.90838,14.64043 0.18928,29.39857 1.00657,44.0367c0.35867,6.42401 0.99822,12.62276 0.99822,19.07644c0,18.18598 -1.01731,36.70711 -0.00378,54.86249c0.44745,8.0152 1.51186,15.99305 2.00067,24.01284c0.36563,5.99873 0.00593,12.13324 0.01472,18.14401c1.91902,18.88987 4.14335,37.86539 4.98678,56.89119c0.39142,8.82955 -0.25491,17.84922 1.92696,26.48312c0,0 0.60634,2.42536 -1.81902,3.0317c-2.42536,0.60634 -3.0317,-1.81902 -3.0317,-1.81902c-2.23137,-9.01307 -1.66135,-18.31034 -2.07304,-27.51688c-0.84978,-19.00347 -3.08955,-37.94361 -4.9834,-56.81346c-0.01609,-6.01058 0.35467,-12.15335 -0.0151,-18.15134c-0.49385,-8.01092 -1.55272,-15.98009 -1.99933,-23.98716c-1.01782,-18.24822 -0.00378,-36.85895 -0.00378,-55.13751c0,-6.37292 -0.63952,-12.47953 -0.99186,-18.82431c-0.81189,-14.62038 -0.09817,-29.35771 -1.00335,-43.97953c-0.76385,-12.33889 -1.76768,-24.74328 -2.00389,-37.13062c-0.0024,-20.02117 -0.08823,-40.0446 -0.0009,-60.06554c0.01472,-3.37433 0.59865,-6.71199 2.12829,-9.79057c0.80393,-1.61801 1.05614,-4.16035 2.79733,-4.64255c1.63671,-0.45327 2.89477,1.7769 4.34215,2.66536l1,1c0,0 1.76777,1.76777 0,3.53553z"/></g></g></svg>