<svg version="1.1" xmlns="http://www.w3.org/2000/svg" xmlns:xlink="http://www.w3.org/1999/xlink" width="34.80669" height="404.03965" viewBox="0,0,34.80669,404.03965"><g transform="translate(-219.69331,-6.46035)"><g data-paper-data="{&quot;isPaintingLayer&quot;:true}" fill="#e9ff66" fill-rule="nonzero" stroke="none" stroke-width="0.5" stroke-linecap="butt" stroke-linejoin="miter" stroke-miterlimit="10" stroke-dasharray="" stroke-dashoffset="0" style="mix-blend-mode: normal"><path d="M252,410.5c-2.5,0 -2.5,-2.5 -2.5,-2.5c0,-2 0,-6 0,-8c0,-2.19891 0.35825,-4.42197 0.03275,-6.59665c-0.15802,-1.05577 -0.8713,-1.97768 -1.02521,-3.03405c-0.6453,-4.42887 -0.62631,-9.10752 -1.0617,-13.57021c-1.04712,-10.73271 -4.13644,-21.73888 -6.86249,-32.15897c-0.80865,-3.091 -2.20185,-6.00844 -3.01942,-9.0971c-0.65256,-2.46528 0.039,-5.73485 -1.87825,-7.4164c-0.43267,-0.37948 -1.12378,0.24892 -1.68567,0.37337c0,0 -2.5,0 -2.5,-2.5c0,-2.5 2.5,-2.5 2.5,-2.5c0.11779,0.01019 0.23756,0.0153 0.35883,0.01658c-1.03141,-2.55278 -1.95416,-5.14435 -2.74579,-7.7733c-1.44806,-4.80896 -2.40664,-9.80512 -3.67063,-14.66629c-1.49471,-5.74851 -3.65266,-11.58146 -4.77125,-17.41355c-0.93387,-4.869 -1.07609,-10.11278 -1.61754,-15.04661c-2.94988,-17.97886 -2.18688,-35.99283 0.85032,-53.9143c0.5688,-3.35628 1.8219,-6.56018 2.68911,-9.85199c1.00873,-3.82898 1.38377,-7.73812 2.50663,-11.54951c1.2132,-4.11803 3.2716,-8.3937 3.92564,-12.65606c0.40552,-2.64278 0.76041,-5.32155 1.60065,-7.85981c0.30008,-5.60406 0.61989,-11.64625 1.40629,-17.18562c0.14816,-1.04363 0.86685,-1.95435 1,-3c0.71922,-5.64807 -0.03228,-11.89242 -0.03228,-17.59954c0,-18.94137 -1.3072,-37.89754 -2.7596,-56.7788c-0.84649,-11.06924 -1.08263,-22.01847 -1.19104,-33.14539c-0.04113,-4.22061 -0.531,-9.29395 -0.01707,-13.47626c0.12856,-1.04622 0.86937,-1.95403 1,-3c0.20018,-1.60286 -0.18046,-3.23856 -0.02011,-4.84589c0.51884,-5.20108 2.06378,-10.29849 3.94876,-15.12721l0.21193,-0.53991c0,0 0.91346,-2.32714 3.2406,-1.41369c2.32714,0.91346 1.41369,3.2406 1.41369,3.2406l-0.21193,0.53991c-1.73119,4.38411 -3.1624,9.06119 -3.62738,13.79298c-0.16802,1.70981 0.19316,3.44935 -0.02011,5.15411c-0.13085,1.04594 -0.86684,1.95435 -1,3c-0.49309,3.87217 0.04346,8.73577 0.0814,12.62662c0.1074,11.0158 0.32903,21.85363 1.17655,32.81064c1.46223,19.00894 2.77433,38.09284 2.77433,57.16229c0,5.9905 0.69733,12.46308 -0.03228,18.40046c-0.12856,1.04622 -0.84996,1.95664 -1,3c-0.80257,5.58083 -1.08357,11.67403 -1.43143,17.32755c-1.36159,4.05589 -1.47766,7.38908 -2.65026,11.43312c-2.02689,6.99024 -3.61614,13.94647 -5.45735,20.96098c-0.82618,3.1475 -2.05663,6.20197 -2.59425,9.41138c-2.9231,17.44962 -3.70184,34.90117 -0.82702,52.40498c0.53319,4.84269 0.65678,10.00272 1.57421,14.78287c1.09893,5.72584 3.23234,11.45334 4.6999,17.09742c1.24404,4.78446 2.18332,9.70406 3.60544,14.43798c3.36505,11.20148 9.24832,21.69082 15.69317,31.35653c0,0 1.38675,2.08013 -0.69338,3.46688c-2.08013,1.38675 -3.46688,-0.69338 -3.46688,-0.69338c-0.66956,-1.0045 -1.33295,-2.01755 -1.98821,-3.03903c3.21738,11.22308 5.3403,22.95072 6.5578,34.42302c0.7315,6.89283 2.01053,13.29882 2.01053,20.22926c0,2 0,4 0,6v2c0,0 0,2.5 -2.5,2.5z"/></g></g></svg>