<svg version="1.1" xmlns="http://www.w3.org/2000/svg" xmlns:xlink="http://www.w3.org/1999/xlink" width="21.19393" height="380.00752" viewBox="0,0,21.19393,380.00752"><g transform="translate(-214.30607,3.50752)"><g data-paper-data="{&quot;isPaintingLayer&quot;:true}" fill="#66ffac" fill-rule="nonzero" stroke="none" stroke-width="0.5" stroke-linecap="butt" stroke-linejoin="miter" stroke-miterlimit="10" stroke-dasharray="" stroke-dashoffset="0" style="mix-blend-mode: normal"><path d="M233,376.5c-2.5,0 -2.5,-2.5 -2.5,-2.5l0.01873,-3.69454c-0.7568,-3.02719 -1.00771,-6.18513 -1.01873,-9.30546c0,-5.66667 0,-11.33333 0,-17c0,-3.92782 0.38925,-8.09989 -0.28203,-11.98784c-0.56599,-3.27812 -2.03697,-6.34894 -2.68569,-9.6117c-0.69836,-3.51242 0.38356,-7.55713 -0.01355,-11.095c-1.25468,-11.17795 -4.01851,-22.08548 -4.01891,-33.3814c-0.03792,-16.65184 -1.07713,-33.20562 -1.99672,-49.79953c-0.89873,-16.21758 -1.06857,-32.93217 -4.98437,-48.81908c-0.03095,-5.45902 -0.71482,-10.7396 -1.01563,-16.18092c-0.4415,-7.98626 -0.0031,-16.12487 -0.0031,-24.12453c0,-19.11765 0.35321,-38.28196 2.46313,-57.30666c1.21693,-10.95237 2.62979,-21.90456 3.54439,-32.8871c1.38962,-16.68663 0.93432,-33.49662 3.01179,-50.11632c0,0 0.31009,-2.48069 2.79078,-2.17061c2.48069,0.31009 2.17061,2.79078 2.17061,2.79078c-2.06748,16.53982 -1.60766,33.27592 -2.98821,49.88368c-0.91753,11.03761 -2.33691,22.0446 -3.55993,33.05173c-2.09735,18.83992 -2.43255,37.82218 -2.43255,56.7545c0,7.9157 -0.44238,15.97346 -0.0031,23.87547c0.29579,5.32088 1.02148,10.47683 0.98437,15.81908c4.04557,15.93991 4.11216,32.8873 5.01563,49.18092c0.9246,16.67481 1.96481,33.30981 2.00292,50.04281c0.0004,11.08134 2.77334,21.80169 3.98145,32.77626c0.36759,3.33925 -0.71538,7.57212 -0.01355,10.905c0.68657,3.26042 2.12618,6.34333 2.68822,9.6275c1.62241,9.48015 0.34406,20.21365 0.34406,29.77296c-0.01164,2.91656 0.27389,5.86504 0.98127,8.69454l0.01873,4.30546c0,0 0,2.5 -2.5,2.5z"/></g></g></svg>