<svg version="1.1" xmlns="http://www.w3.org/2000/svg" xmlns:xlink="http://www.w3.org/1999/xlink" width="15.27726" height="395.03305" viewBox="0,0,15.27726,395.03305"><g transform="translate(-225.65608,-2.46695)"><g data-paper-data="{&quot;isPaintingLayer&quot;:true}" fill="#ff6666" fill-rule="nonzero" stroke="none" stroke-width="0.5" stroke-linecap="butt" stroke-linejoin="miter" stroke-miterlimit="10" stroke-dasharray="" stroke-dashoffset="0" style="mix-blend-mode: normal"><path d="M232,397.5c-2.5,0 -2.5,-2.5 -2.5,-2.5c0,-1.33333 0,-4.66667 0,-6c0,-33.38685 -1.07962,-66.76993 4.00353,-99.86727c-1.5955,-5.9872 -2.59815,-11.96602 -3.88333,-18.01256c-1.03857,-4.88632 -2.51166,-9.92001 -3.15034,-14.87234c-1.72216,-13.35362 -0.40735,-26.63812 1.13874,-39.90783c1.16529,-10.00143 1.98504,-20.04653 3.95937,-29.92738c6.36551,-31.77087 3.93203,-65.15972 3.93203,-97.41261c0,-7.95975 -0.47413,-15.89379 -0.9937,-23.82264c-0.74701,-11.3996 -4.15017,-22.60536 -4.99937,-33.99142c-0.29261,-3.92329 0.20282,-5.3561 -0.0031,-9.04769c-0.16811,-3.01378 -0.83616,-5.98599 -1,-9c-0.13388,-2.46292 -0.06825,-5.01698 -0.87553,-7.34768c0,0 -0.79057,-2.37171 1.58114,-3.16228c2.37171,-0.79057 3.16228,1.58114 3.16228,1.58114c2.70119,8.35515 1.47224,17.90117 2.12137,26.60463c0.84959,11.3912 4.23632,22.60151 5.00063,34.00858c0.53896,8.04376 1.0063,16.1015 1.0063,24.17736c0,32.60169 2.38344,66.27512 -4.02913,98.39319c-1.95091,9.7452 -2.74647,19.66045 -3.89587,29.52545c-1.49916,12.86694 -2.81643,25.73878 -1.14621,38.68965c1.42601,11.05727 4.43834,22.43493 7.06768,33.25897c-1.70055,12.68578 -3.23803,25.42748 -3.90522,38.22173c-1.07039,20.52614 -0.09126,41.35619 -0.09126,61.911c0,1.33333 0,2.66667 0,4v2c0,0 0,2.5 -2.5,2.5z"/></g></g></svg>